# xmcd
#
# Track frame offsets:
#	150
#	10890
#	31787
#	52567
#	58072
#	85307
#	113332
#	125415
#	137122
#	157282
#	173345
#	184797
#	195825
#	213495
#	231545
#
# Disc length: 3245 seconds
#
# Revision: 3953329252
# Processed by: cddbd v1.5.2PL0 Copyright (c) Steve Scherf et al.
# Submitted via: EZCDAudioConverter 7.0.0.1
#
DISCID=bd0cab0f
DTITLE=Pappo's Blues - Hombre Suburbano
DYEAR=1998
DGENRE=Blues
TTITLE0=Hombre Suburbano
TTITLE1=Blues de Santa Fe
TTITLE2=Sucio y Desprolijo
TTITLE3=Trabajando en el ferrocarril
TTITLE4=Malas compañias
TTITLE5=Siempre es lo mismo
TTITLE6=Tren de las 16 hs.
TTITLE7=Fiesta cervesal
TTITLE8=Algo ha cambiado
TTITLE9=Llegará la paz
TTITLE10=El sur de la ciudad
TTITLE11=Pájaro metálico
TTITLE12=Caras en el parque
TTITLE13=Insoluble
TTITLE14=Desconfío de la vida (desconfío)
EXTD=
EXTT0=
EXTT1=
EXTT2=
EXTT3=
EXTT4=
EXTT5=
EXTT6=
EXTT7=
EXTT8=
EXTT9=
EXTT10=
EXTT11=
EXTT12=
EXTT13=
EXTT14=
PLAYORDER=
